<svg width="716" height="573" viewBox="0 0 716 573" fill="none" xmlns="http://www.w3.org/2000/svg">
<path d="M566.249 483.753H524.756V569.249H566.249V483.753Z" fill="#DCEAF9"/>
<path d="M172.054 113.148H214.383V97.6504H172.054V113.148Z" fill="#EBF2F9"/>
<path d="M172.054 142.27H214.383V126.767H172.054V142.27Z" fill="#EBF2F9"/>
<path d="M172.054 168.469H214.383V152.971H172.054V168.469Z" fill="#EBF2F9"/>
<path d="M488.305 278.694H439.102V302.619H488.305V278.694Z" fill="#EBF2F9"/>
<path d="M488.305 352.137H439.57V376.062H488.305V352.137Z" fill="#EBF2F9"/>
<path d="M488.305 388.28H439.57V412.206H488.305V388.28Z" fill="#EBF2F9"/>
<path d="M138.43 152.971H93.9072V168.469H138.43V152.971Z" fill="#EBF2F9"/>
<path d="M138.43 127.006H93.9072V142.509H138.43V127.006Z" fill="#EBF2F9"/>
<path d="M215.459 178.371H93.9072V193.874H215.459V178.371Z" fill="#EBF2F9"/>
<path d="M215.459 201.679H93.9072V217.182H215.459V201.679Z" fill="#EBF2F9"/>
<path d="M215.459 224.827H93.9072V239.734H215.459V224.827Z" fill="#EBF2F9"/>
<path d="M488.305 315.993H439.57V339.918H488.305V315.993Z" fill="#EBF2F9"/>
<path d="M290.97 254.774H280.332V269.766H290.97V254.774Z" fill="#EBF2F9"/>
<path d="M271.078 254.774H260.44V269.766H271.078V254.774Z" fill="#EBF2F9"/>
<path d="M251.628 254.774H240.99V269.766H251.628V254.774Z" fill="#EBF2F9"/>
<path d="M233.19 254.774H222.551V269.766H233.19V254.774Z" fill="#EBF2F9"/>
<path d="M214.399 254.774H203.761V269.766H214.399V254.774Z" fill="#EBF2F9"/>
<path d="M195.386 254.774H184.748V269.766H195.386V254.774Z" fill="#EBF2F9"/>
<path d="M175.494 254.774H164.855V269.766H175.494V254.774Z" fill="#EBF2F9"/>
<path d="M156.049 254.774H145.411V269.766H156.049V254.774Z" fill="#EBF2F9"/>
<path d="M137.605 254.774H126.967V269.766H137.605V254.774Z" fill="#EBF2F9"/>
<path d="M118.815 254.774H108.177V269.766H118.815V254.774Z" fill="#EBF2F9"/>
<path d="M99.2261 254.774H88.5879V269.766H99.2261V254.774Z" fill="#EBF2F9"/>
<path d="M79.3341 254.774H68.6958V269.766H79.3341V254.774Z" fill="#EBF2F9"/>
<path d="M59.8892 254.774H49.251V269.766H59.8892V254.774Z" fill="#EBF2F9"/>
<path d="M41.4453 254.774H30.8071V269.766H41.4453V254.774Z" fill="#EBF2F9"/>
<path d="M22.6553 254.774H12.0171V269.766H22.6553V254.774Z" fill="#EBF2F9"/>
<path d="M290.97 281.233H280.332V296.225H290.97V281.233Z" fill="#EBF2F9"/>
<path d="M271.078 281.233H260.44V296.225H271.078V281.233Z" fill="#EBF2F9"/>
<path d="M251.628 281.233H240.99V296.225H251.628V281.233Z" fill="#EBF2F9"/>
<path d="M233.19 281.233H222.551V296.225H233.19V281.233Z" fill="#EBF2F9"/>
<path d="M214.399 281.233H203.761V296.225H214.399V281.233Z" fill="#EBF2F9"/>
<path d="M195.386 281.233H184.748V296.225H195.386V281.233Z" fill="#EBF2F9"/>
<path d="M175.494 281.233H164.855V296.225H175.494V281.233Z" fill="#EBF2F9"/>
<path d="M156.049 281.233H145.411V296.225H156.049V281.233Z" fill="#EBF2F9"/>
<path d="M137.605 281.233H126.967V296.225H137.605V281.233Z" fill="#EBF2F9"/>
<path d="M118.815 281.233H108.177V296.225H118.815V281.233Z" fill="#EBF2F9"/>
<path d="M99.2261 281.233H88.5879V296.225H99.2261V281.233Z" fill="#EBF2F9"/>
<path d="M79.3341 281.233H68.6958V296.225H79.3341V281.233Z" fill="#EBF2F9"/>
<path d="M59.8892 281.233H49.251V296.225H59.8892V281.233Z" fill="#EBF2F9"/>
<path d="M41.4453 281.233H30.8071V296.225H41.4453V281.233Z" fill="#EBF2F9"/>
<path d="M22.6553 281.233H12.0171V296.225H22.6553V281.233Z" fill="#EBF2F9"/>
<path d="M290.97 307.283H280.332V322.275H290.97V307.283Z" fill="#EBF2F9"/>
<path d="M271.078 307.283H260.44V322.275H271.078V307.283Z" fill="#EBF2F9"/>
<path d="M251.628 307.283H240.99V322.275H251.628V307.283Z" fill="#EBF2F9"/>
<path d="M233.19 307.283H222.551V322.275H233.19V307.283Z" fill="#EBF2F9"/>
<path d="M214.399 307.283H203.761V322.275H214.399V307.283Z" fill="#EBF2F9"/>
<path d="M195.386 307.283H184.748V322.275H195.386V307.283Z" fill="#EBF2F9"/>
<path d="M175.494 307.283H164.855V322.275H175.494V307.283Z" fill="#EBF2F9"/>
<path d="M156.049 307.283H145.411V322.275H156.049V307.283Z" fill="#EBF2F9"/>
<path d="M137.605 307.283H126.967V322.275H137.605V307.283Z" fill="#EBF2F9"/>
<path d="M118.815 307.283H108.177V322.275H118.815V307.283Z" fill="#EBF2F9"/>
<path d="M99.2261 307.283H88.5879V322.275H99.2261V307.283Z" fill="#EBF2F9"/>
<path d="M79.3341 307.283H68.6958V322.275H79.3341V307.283Z" fill="#EBF2F9"/>
<path d="M59.8892 307.283H49.251V322.275H59.8892V307.283Z" fill="#EBF2F9"/>
<path d="M41.4453 307.283H30.8071V322.275H41.4453V307.283Z" fill="#EBF2F9"/>
<path d="M22.6553 307.283H12.0171V322.275H22.6553V307.283Z" fill="#EBF2F9"/>
<path d="M290.97 334.962H280.332V349.954H290.97V334.962Z" fill="#EBF2F9"/>
<path d="M271.078 334.962H260.44V349.954H271.078V334.962Z" fill="#EBF2F9"/>
<path d="M251.628 334.962H240.99V349.954H251.628V334.962Z" fill="#EBF2F9"/>
<path d="M233.19 334.962H222.551V349.954H233.19V334.962Z" fill="#EBF2F9"/>
<path d="M214.399 334.962H203.761V349.954H214.399V334.962Z" fill="#EBF2F9"/>
<path d="M195.386 334.962H184.748V349.954H195.386V334.962Z" fill="#EBF2F9"/>
<path d="M175.494 334.962H164.855V349.954H175.494V334.962Z" fill="#EBF2F9"/>
<path d="M156.049 334.962H145.411V349.954H156.049V334.962Z" fill="#EBF2F9"/>
<path d="M137.605 334.962H126.967V349.954H137.605V334.962Z" fill="#EBF2F9"/>
<path d="M118.815 334.962H108.177V349.954H118.815V334.962Z" fill="#EBF2F9"/>
<path d="M99.2261 334.962H88.5879V349.954H99.2261V334.962Z" fill="#EBF2F9"/>
<path d="M79.3341 334.962H68.6958V349.954H79.3341V334.962Z" fill="#EBF2F9"/>
<path d="M59.8892 334.962H49.251V349.954H59.8892V334.962Z" fill="#EBF2F9"/>
<path d="M41.4453 334.962H30.8071V349.954H41.4453V334.962Z" fill="#EBF2F9"/>
<path d="M22.6553 334.962H12.0171V349.954H22.6553V334.962Z" fill="#EBF2F9"/>
<path d="M290.97 361.422H280.332V376.414H290.97V361.422Z" fill="#EBF2F9"/>
<path d="M271.078 361.422H260.44V376.414H271.078V361.422Z" fill="#EBF2F9"/>
<path d="M251.628 361.422H240.99V376.414H251.628V361.422Z" fill="#EBF2F9"/>
<path d="M233.19 361.422H222.551V376.414H233.19V361.422Z" fill="#EBF2F9"/>
<path d="M214.399 361.422H203.761V376.414H214.399V361.422Z" fill="#EBF2F9"/>
<path d="M195.386 361.422H184.748V376.414H195.386V361.422Z" fill="#EBF2F9"/>
<path d="M175.494 361.422H164.855V376.414H175.494V361.422Z" fill="#EBF2F9"/>
<path d="M156.049 361.422H145.411V376.414H156.049V361.422Z" fill="#EBF2F9"/>
<path d="M137.605 361.422H126.967V376.414H137.605V361.422Z" fill="#EBF2F9"/>
<path d="M118.815 361.422H108.177V376.414H118.815V361.422Z" fill="#EBF2F9"/>
<path d="M99.2261 361.422H88.5879V376.414H99.2261V361.422Z" fill="#EBF2F9"/>
<path d="M79.3341 361.422H68.6958V376.414H79.3341V361.422Z" fill="#EBF2F9"/>
<path d="M59.8892 361.422H49.251V376.414H59.8892V361.422Z" fill="#EBF2F9"/>
<path d="M41.4453 361.422H30.8071V376.414H41.4453V361.422Z" fill="#EBF2F9"/>
<path d="M22.6553 361.422H12.0171V376.414H22.6553V361.422Z" fill="#EBF2F9"/>
<path d="M290.97 387.471H280.332V402.463H290.97V387.471Z" fill="#EBF2F9"/>
<path d="M271.078 387.471H260.44V402.463H271.078V387.471Z" fill="#EBF2F9"/>
<path d="M251.628 387.471H240.99V402.463H251.628V387.471Z" fill="#EBF2F9"/>
<path d="M233.19 387.471H222.551V402.463H233.19V387.471Z" fill="#EBF2F9"/>
<path d="M214.399 387.471H203.761V402.463H214.399V387.471Z" fill="#EBF2F9"/>
<path d="M195.386 387.471H184.748V402.463H195.386V387.471Z" fill="#EBF2F9"/>
<path d="M175.494 387.471H164.855V402.463H175.494V387.471Z" fill="#EBF2F9"/>
<path d="M156.049 387.471H145.411V402.463H156.049V387.471Z" fill="#EBF2F9"/>
<path d="M137.605 387.471H126.967V402.463H137.605V387.471Z" fill="#EBF2F9"/>
<path d="M118.815 387.471H108.177V402.463H118.815V387.471Z" fill="#EBF2F9"/>
<path d="M99.2261 387.471H88.5879V402.463H99.2261V387.471Z" fill="#EBF2F9"/>
<path d="M79.3341 387.471H68.6958V402.463H79.3341V387.471Z" fill="#EBF2F9"/>
<path d="M59.8892 387.471H49.251V402.463H59.8892V387.471Z" fill="#EBF2F9"/>
<path d="M41.4453 387.471H30.8071V402.463H41.4453V387.471Z" fill="#EBF2F9"/>
<path d="M22.6553 387.471H12.0171V402.463H22.6553V387.471Z" fill="#EBF2F9"/>
<path d="M383.584 312.745V281.558H382.306V312.745H364.751V351.232H400.899V312.745H383.584Z" fill="#EBF2F9"/>
<path d="M488.305 232.211V208.286H478.135V197.872H476.852V208.286H439.778H439.102H432.09V197.872H430.806V208.286H421.813V312.846H439.778V267.796H488.305V243.87H439.778V232.211H488.305Z" fill="#EBF2F9"/>
<path d="M413.81 426.09H170.174V568.589H413.81V426.09Z" fill="#EBF2F9"/>
<path d="M192.724 440.699H179.732V460.531H192.724V440.699Z" fill="#D5E7F7"/>
<path d="M215.629 440.699H202.638V460.531H215.629V440.699Z" fill="#D5E7F7"/>
<path d="M238.689 440.699H225.698V460.531H238.689V440.699Z" fill="#D5E7F7"/>
<path d="M261.595 440.699H248.604V460.531H261.595V440.699Z" fill="#D5E7F7"/>
<path d="M285.188 440.699H272.196V460.531H285.188V440.699Z" fill="#D5E7F7"/>
<path d="M308.094 440.699H295.102V460.531H308.094V440.699Z" fill="#D5E7F7"/>
<path d="M331.154 440.699H318.162V460.531H331.154V440.699Z" fill="#D5E7F7"/>
<path d="M354.06 440.699H341.068V460.531H354.06V440.699Z" fill="#D5E7F7"/>
<path d="M378.083 440.699H365.092V460.531H378.083V440.699Z" fill="#D5E7F7"/>
<path d="M400.99 440.699H387.998V460.531H400.99V440.699Z" fill="#D5E7F7"/>
<path d="M192.724 470.028H179.732V489.86H192.724V470.028Z" fill="#D5E7F7"/>
<path d="M215.629 470.028H202.638V489.86H215.629V470.028Z" fill="#D5E7F7"/>
<path d="M238.689 470.028H225.698V489.86H238.689V470.028Z" fill="#D5E7F7"/>
<path d="M261.595 470.028H248.604V489.86H261.595V470.028Z" fill="#D5E7F7"/>
<path d="M285.188 470.028H272.196V489.86H285.188V470.028Z" fill="#D5E7F7"/>
<path d="M308.094 470.028H295.102V489.86H308.094V470.028Z" fill="#D5E7F7"/>
<path d="M331.154 470.028H318.162V489.86H331.154V470.028Z" fill="#D5E7F7"/>
<path d="M354.06 470.028H341.068V489.86H354.06V470.028Z" fill="#D5E7F7"/>
<path d="M378.083 470.028H365.092V489.86H378.083V470.028Z" fill="#D5E7F7"/>
<path d="M400.99 470.028H387.998V489.86H400.99V470.028Z" fill="#D5E7F7"/>
<path d="M192.724 501.53H179.732V521.361H192.724V501.53Z" fill="#D5E7F7"/>
<path d="M215.629 501.53H202.638V521.361H215.629V501.53Z" fill="#D5E7F7"/>
<path d="M238.689 501.53H225.698V521.361H238.689V501.53Z" fill="#D5E7F7"/>
<path d="M261.595 501.53H248.604V521.361H261.595V501.53Z" fill="#D5E7F7"/>
<path d="M285.188 501.53H272.196V521.361H285.188V501.53Z" fill="#D5E7F7"/>
<path d="M308.094 501.53H295.102V521.361H308.094V501.53Z" fill="#D5E7F7"/>
<path d="M331.154 501.53H318.162V521.361H331.154V501.53Z" fill="#D5E7F7"/>
<path d="M354.06 501.53H341.068V521.361H354.06V501.53Z" fill="#D5E7F7"/>
<path d="M378.083 501.53H365.092V521.361H378.083V501.53Z" fill="#D5E7F7"/>
<path d="M400.99 501.53H387.998V521.361H400.99V501.53Z" fill="#D5E7F7"/>
<path d="M192.724 530.859H179.732V550.69H192.724V530.859Z" fill="#D5E7F7"/>
<path d="M215.629 530.859H202.638V550.69H215.629V530.859Z" fill="#D5E7F7"/>
<path d="M238.689 530.859H225.698V550.69H238.689V530.859Z" fill="#D5E7F7"/>
<path d="M261.595 530.859H248.604V550.69H261.595V530.859Z" fill="#D5E7F7"/>
<path d="M285.188 530.859H272.196V550.69H285.188V530.859Z" fill="#D5E7F7"/>
<path d="M308.094 530.859H295.102V550.69H308.094V530.859Z" fill="#D5E7F7"/>
<path d="M331.154 530.859H318.162V550.69H331.154V530.859Z" fill="#D5E7F7"/>
<path d="M354.06 530.859H341.068V550.69H354.06V530.859Z" fill="#D5E7F7"/>
<path d="M378.083 530.859H365.092V550.69H378.083V530.859Z" fill="#D5E7F7"/>
<path d="M400.99 530.859H387.998V550.69H400.99V530.859Z" fill="#D5E7F7"/>
<path d="M329.881 432.602H380.719V388.28L329.881 407.739V432.602Z" fill="#EBF2F9"/>
<path d="M390.495 388.28H380.719V426.096H390.495V388.28Z" fill="#EBF2F9"/>
<path d="M369.979 420.24V407.249H350.146V420.24H369.979Z" fill="#D5E7F7"/>
<path d="M6.74072 147.003H0V204.192H6.74072V147.003Z" fill="#EBF2F9"/>
<path d="M20.4351 147.003H13.6943V204.192H20.4351V147.003Z" fill="#EBF2F9"/>
<path d="M373.952 78.9211C370.145 34.2006 349.055 0 323.598 0C296.87 0 274.954 37.7143 272.803 85.7143C270.988 85.1179 269.091 84.8124 267.18 84.8092C253.97 84.8092 243.263 99.1837 243.263 116.912C243.254 120.724 243.766 124.52 244.786 128.193C223.957 136.978 209.08 160.206 209.08 187.475C209.08 222.293 233.333 250.515 263.251 250.515C287.248 250.515 307.598 232.355 314.717 207.205C324.088 215.5 335.445 220.36 347.686 220.36C379.819 220.36 405.872 186.905 405.872 145.634C405.872 116.486 392.891 91.2458 373.952 78.9211Z" fill="#A0E7B1"/>
<path d="M362.137 112.951C307.828 105.631 299.735 164.758 299.735 164.758C235.373 135.477 209.171 190.642 209.171 190.642C210.603 223.97 234.281 250.477 263.273 250.477C287.27 250.477 307.62 232.318 314.739 207.168C324.11 215.462 337.959 249.684 350.205 249.684C369.512 249.684 384.127 208.243 394.707 189.647C395.053 188.513 416.005 120.208 362.137 112.951Z" fill="#50CC96"/>
<path d="M316.725 305.824C305.139 305.824 295.193 298.999 287.174 285.54C281.126 275.425 276.121 261.365 272.298 243.828C265.855 214.302 264.913 184.392 264.907 184.089C264.878 183.094 265.246 182.129 265.929 181.405C266.612 180.681 267.554 180.258 268.549 180.229C269.544 180.2 270.51 180.568 271.234 181.25C271.958 181.933 272.381 182.876 272.409 183.871C272.409 184.163 273.347 213.466 279.651 242.311C285.236 267.865 296.199 298.318 316.725 298.318C317.72 298.318 318.675 298.713 319.379 299.417C320.083 300.121 320.479 301.076 320.479 302.071C320.479 303.067 320.083 304.021 319.379 304.725C318.675 305.429 317.72 305.824 316.725 305.824Z" fill="#7A3909"/>
<path d="M317.071 390.964C316.869 390.964 316.677 390.964 316.491 390.964C315.497 390.902 314.569 390.449 313.91 389.703C313.251 388.957 312.915 387.98 312.976 386.987C313.038 385.993 313.491 385.065 314.237 384.406C314.983 383.747 315.96 383.411 316.954 383.473C317.428 383.473 318.194 383.414 319.339 382.318C324.025 377.83 332.389 359.249 335.76 285.205C337.703 242.518 336.979 201.86 336.974 201.455C336.965 200.962 337.053 200.472 337.233 200.014C337.413 199.555 337.682 199.136 338.024 198.781C338.366 198.426 338.775 198.142 339.227 197.945C339.679 197.748 340.165 197.642 340.658 197.633C341.151 197.624 341.641 197.712 342.1 197.892C342.559 198.072 342.978 198.341 343.333 198.683C343.688 199.025 343.972 199.434 344.169 199.886C344.366 200.338 344.472 200.824 344.481 201.317C344.481 201.721 345.216 242.619 343.262 285.546C342.112 310.818 340.27 331.863 337.783 348.09C334.53 369.349 330.196 382.318 324.536 387.743C321.799 390.341 319.057 390.964 317.071 390.964Z" fill="#7A3909"/>
<path d="M670.444 184.414C671.465 180.573 671.977 176.616 671.967 172.642C671.967 154.153 661.26 139.161 648.05 139.161C646.137 139.165 644.238 139.481 642.427 140.098C640.297 90.0533 618.355 50.7045 591.632 50.7045C566.176 50.7045 545.08 86.3745 541.278 133.033C522.339 145.89 509.332 172.216 509.332 202.605C509.332 217.091 512.287 230.657 517.425 242.279C499.854 253.107 488.673 269.43 488.673 287.697C488.673 320.295 524.309 346.722 568.273 346.722C601.178 346.722 629.425 331.911 641.548 310.792C644.961 311.601 648.456 312.011 651.963 312.011C681.881 312.011 706.134 282.57 706.134 246.25C706.15 217.794 691.273 193.581 670.444 184.414Z" fill="#A0E7B1"/>
<path d="M670.444 184.414C670.444 184.414 617.732 163.895 577.564 200.05C537.397 236.204 509.443 179.18 522.85 152.667C514.427 166.19 509.358 183.594 509.358 202.584C509.358 217.07 512.313 230.635 517.451 242.257C499.881 253.086 488.699 269.409 488.699 287.675C488.699 320.273 524.336 346.701 568.3 346.701C601.205 346.701 629.451 331.89 641.575 310.77C644.987 311.58 648.482 311.989 651.989 311.989C681.908 311.989 706.16 282.548 706.16 246.229C706.15 217.794 691.273 193.581 670.444 184.414Z" fill="#50CC96"/>
<path d="M608.504 572.076C607.516 572.076 606.568 571.684 605.869 570.985C605.17 570.286 604.777 569.338 604.777 568.35V161.649C604.814 160.677 605.226 159.757 605.926 159.083C606.627 158.408 607.561 158.031 608.534 158.031C609.506 158.031 610.441 158.408 611.141 159.083C611.842 159.757 612.254 160.677 612.29 161.649V568.323C612.29 568.819 612.192 569.309 612.001 569.767C611.811 570.224 611.531 570.639 611.179 570.988C610.827 571.337 610.41 571.613 609.951 571.8C609.492 571.987 609 572.081 608.504 572.076Z" fill="#7A3909"/>
<path d="M608.505 306.096C597.856 306.096 588.842 302.3 581.723 294.815C561.815 273.881 563.726 231.12 563.817 229.331C563.866 228.336 564.309 227.402 565.047 226.733C565.785 226.065 566.759 225.717 567.754 225.767C568.749 225.816 569.683 226.259 570.352 226.997C571.02 227.735 571.368 228.709 571.319 229.704C571.319 230.119 569.482 271.086 587.175 289.672C592.899 295.682 599.874 298.605 608.505 298.605C609.01 298.586 609.514 298.669 609.986 298.849C610.459 299.03 610.89 299.303 611.254 299.654C611.618 300.005 611.908 300.425 612.106 300.89C612.303 301.355 612.405 301.856 612.405 302.361C612.405 302.867 612.303 303.367 612.106 303.832C611.908 304.297 611.618 304.718 611.254 305.069C610.89 305.419 610.459 305.693 609.986 305.873C609.514 306.053 609.01 306.136 608.505 306.117V306.096Z" fill="#7A3909"/>
<path d="M609.037 391.235C608.787 391.235 608.536 391.235 608.281 391.235C607.287 391.174 606.358 390.72 605.698 389.974C605.039 389.227 604.703 388.25 604.764 387.256C604.825 386.262 605.279 385.333 606.026 384.673C606.772 384.014 607.75 383.678 608.744 383.739C610.176 383.83 611.609 383.207 613.11 381.865C617.748 377.713 626.554 363.088 633.396 311.824C637.358 282.176 638.721 254.534 638.721 254.257C638.769 253.263 639.21 252.328 639.947 251.658C640.685 250.989 641.658 250.64 642.653 250.688C643.648 250.736 644.583 251.177 645.252 251.914C645.922 252.652 646.271 253.625 646.223 254.619C646.223 254.896 644.833 282.836 640.834 312.815C638.476 330.479 635.675 345.397 632.512 357.157C628.365 372.596 623.658 382.499 618.136 387.461C615.288 389.963 612.232 391.235 609.037 391.235Z" fill="#7A3909"/>
<path d="M374.106 219.28C373.081 214.631 372.568 209.884 372.578 205.123C372.578 182.88 383.291 164.854 396.501 164.854C398.43 164.862 400.34 165.246 402.124 165.982C404.253 105.785 426.19 58.472 452.919 58.472C478.37 58.472 499.465 101.393 503.272 157.496C522.211 172.935 535.219 204.618 535.219 241.171C535.219 258.596 532.264 274.909 527.12 288.884C544.691 301.906 555.872 321.54 555.872 343.512C555.872 382.717 520.236 414.495 476.272 414.495C443.361 414.495 415.121 396.687 402.997 371.287C399.61 372.255 396.105 372.748 392.582 372.751C362.664 372.751 338.406 337.342 338.406 293.665C338.395 259.437 353.277 230.305 374.106 219.28Z" fill="#50CC96"/>
<path d="M527.094 288.873C532.237 274.898 535.192 258.586 535.192 241.161C535.192 236.774 535.015 232.467 534.66 228.24C461.124 233.292 464.052 307.033 464.052 307.033C464.052 307.033 414.104 269.766 393.828 305.84C373.553 341.915 402.981 371.276 402.981 371.276C415.105 396.676 443.346 414.484 476.256 414.484C520.22 414.484 555.857 382.706 555.857 343.501C555.862 321.53 544.67 301.911 527.094 288.873Z" fill="#00AF8D"/>
<path d="M452.125 572.79C451.134 572.79 450.183 572.398 449.478 571.7C448.774 571.002 448.375 570.054 448.366 569.063V264.165C448.403 263.193 448.815 262.274 449.515 261.599C450.216 260.925 451.15 260.548 452.123 260.548C453.095 260.548 454.03 260.925 454.73 261.599C455.431 262.274 455.842 263.193 455.879 264.165V569.036C455.879 570.032 455.484 570.987 454.78 571.69C454.076 572.394 453.121 572.79 452.125 572.79Z" fill="#7A3909"/>
<path d="M452.126 354.66C441.477 354.66 432.458 350.864 425.344 343.384C405.431 322.446 407.342 279.684 407.438 277.874C407.463 277.382 407.584 276.899 407.796 276.454C408.007 276.009 408.304 275.61 408.67 275.279C409.035 274.949 409.462 274.693 409.927 274.528C410.391 274.363 410.883 274.29 411.376 274.315C411.868 274.34 412.35 274.461 412.796 274.673C413.241 274.884 413.64 275.181 413.971 275.546C414.301 275.912 414.556 276.339 414.722 276.803C414.887 277.268 414.96 277.76 414.935 278.252C414.935 278.699 413.109 319.64 430.791 338.22C436.515 344.231 443.49 347.154 452.126 347.154C453.122 347.154 454.077 347.549 454.781 348.253C455.485 348.957 455.88 349.911 455.88 350.907C455.88 351.902 455.485 352.857 454.781 353.561C454.077 354.265 453.122 354.66 452.126 354.66Z" fill="#7A3909"/>
<path d="M684.484 483.753C681.897 483.753 679.804 472.765 679.804 470.183V376.062C679.783 375.434 679.889 374.808 680.114 374.221C680.34 373.635 680.682 373.1 681.119 372.648C681.556 372.196 682.079 371.837 682.658 371.591C683.236 371.346 683.859 371.219 684.487 371.219C685.116 371.219 685.738 371.346 686.317 371.591C686.895 371.837 687.419 372.196 687.856 372.648C688.292 373.1 688.634 373.635 688.86 374.221C689.086 374.808 689.191 375.434 689.17 376.062V492.916C689.17 495.503 687.072 483.753 684.484 483.753Z" fill="#284663"/>
<path d="M497.09 497.595C495.849 497.595 494.658 497.102 493.781 496.225C492.903 495.347 492.41 494.157 492.41 492.916V376.062C492.389 375.434 492.494 374.808 492.72 374.221C492.946 373.635 493.287 373.1 493.724 372.648C494.161 372.196 494.685 371.837 495.263 371.591C495.842 371.346 496.464 371.219 497.093 371.219C497.721 371.219 498.344 371.346 498.922 371.591C499.501 371.837 500.024 372.196 500.461 372.648C500.898 373.1 501.24 373.635 501.466 374.221C501.691 374.808 501.797 375.434 501.776 376.062V492.916C501.776 493.531 501.654 494.14 501.419 494.708C501.183 495.276 500.838 495.792 500.403 496.227C499.968 496.661 499.451 497.006 498.883 497.241C498.314 497.476 497.705 497.596 497.09 497.595Z" fill="#284663"/>
<path d="M465.862 450.016H705.362C706.491 450.016 707.575 450.465 708.373 451.263C709.172 452.062 709.621 453.145 709.621 454.275V474.602C709.621 475.731 709.172 476.814 708.373 477.613C707.575 478.412 706.491 478.861 705.362 478.861H470.138C469.008 478.861 467.925 478.412 467.126 477.613C466.327 476.814 465.878 475.731 465.878 474.602V450.016H465.862Z" fill="#008175"/>
<path d="M693.115 498.777H424.635C423.082 498.777 421.592 498.16 420.494 497.062C419.395 495.964 418.778 494.474 418.778 492.921C418.778 491.368 419.395 489.878 420.494 488.78C421.592 487.682 423.082 487.065 424.635 487.065H693.115V498.777Z" fill="#008175"/>
<path d="M707.742 444.841H467.104L468.243 420.266C468.243 419.137 468.692 418.053 469.49 417.255C470.289 416.456 471.373 416.007 472.502 416.007H707.726C708.856 416.007 709.939 416.456 710.738 417.255C711.537 418.053 711.986 419.137 711.986 420.266V440.566C711.988 441.125 711.88 441.68 711.668 442.197C711.455 442.715 711.143 443.186 710.749 443.583C710.355 443.979 709.887 444.295 709.371 444.511C708.855 444.727 708.301 444.839 707.742 444.841Z" fill="#008175"/>
<path d="M475.724 380.742H710.953C712.082 380.742 713.166 381.191 713.965 381.989C714.763 382.788 715.212 383.871 715.212 385.001V405.301C715.212 406.43 714.763 407.514 713.965 408.312C713.166 409.111 712.082 409.56 710.953 409.56H471.448V385.012C471.447 384.45 471.557 383.894 471.771 383.375C471.985 382.856 472.3 382.384 472.698 381.987C473.095 381.591 473.567 381.276 474.086 381.062C474.606 380.849 475.162 380.74 475.724 380.742Z" fill="#008175"/>
<path d="M698.046 570.479H688.68V508.11C688.68 496.732 684.16 485.821 676.114 477.775C668.068 469.73 657.155 465.21 645.776 465.21C634.397 465.21 623.484 469.73 615.438 477.775C607.392 485.821 602.872 496.732 602.872 508.11V570.479H593.506V508.11C593.506 494.249 599.013 480.955 608.815 471.154C618.618 461.352 631.913 455.846 645.776 455.846C659.639 455.846 672.934 461.352 682.736 471.154C692.539 480.955 698.046 494.249 698.046 508.11V570.479Z" fill="#284663"/>
<path d="M465.863 455.904C452.432 456.532 439.758 462.304 430.469 472.024C421.18 481.744 415.989 494.666 415.973 508.11V570.479H425.344V508.11C425.357 497.149 429.562 486.607 437.096 478.644C444.63 470.682 454.923 465.9 465.868 465.279L465.863 455.904Z" fill="#284663"/>
<path d="M190.37 569.771L192.718 318.298C192.718 318.298 194.747 300.197 210.55 300.197C227.407 300.197 228.376 318.298 228.376 318.298C228.293 318.753 228.047 319.163 227.685 319.451C227.323 319.738 226.868 319.885 226.406 319.863C225.923 319.897 225.444 319.758 225.054 319.471C224.664 319.185 224.388 318.769 224.276 318.298C224.276 318.298 223.531 304.334 210.534 304.334C198.351 304.334 196.786 318.298 196.786 318.298V569.771H190.37Z" fill="#2C3F4E"/>
<path d="M198.969 569.771H188.48L189.417 558.809C189.417 558.809 189.327 557.281 191.446 557.212C193.416 557.132 197.303 556.85 197.67 558.043C197.989 559.054 198.969 569.771 198.969 569.771Z" fill="#2C3F4E"/>
<path d="M209.459 286.861L208.745 290.454C208.745 290.454 190.961 290.39 186.808 309.439C186.808 309.439 185.68 317.372 191.393 315.679C197.106 313.986 196.222 309.94 204.315 307.72C212.408 305.5 217.685 303.807 218.915 297.918L220.235 291.359L209.459 286.861Z" fill="#FFB48D"/>
<path d="M272.335 130.935C272.335 130.935 267.633 149.441 263.576 166.36C261.941 173.175 260.419 179.728 259.316 184.712C258.22 189.833 257.597 193.304 257.836 193.688C261.361 199.411 254.918 234.319 249.823 246.996C249.37 248.124 248.758 249.439 248.007 250.903C240.878 264.873 221.917 292.296 221.917 292.296C221.917 292.296 216.566 292.829 213.063 291.535C210.145 290.428 208.148 286.855 208.148 286.855C209.842 284.124 216.71 251.862 225.543 233.776C229.324 226.035 234.893 154.238 242.214 144.57C248.327 136.509 272.335 130.935 272.335 130.935Z" fill="#FBAE25"/>
<path d="M257.858 193.688C261.382 199.411 254.94 234.319 249.844 246.996C249.392 248.124 248.779 249.439 248.029 250.903C241.219 220.77 252.507 178.089 252.507 178.089C255.323 179.207 257.623 193.304 257.858 193.688Z" fill="#F48D1C"/>
<path d="M307.21 542.071C307.21 542.071 309.02 569.34 303.871 569.723C303.185 569.771 277.75 569.771 277.75 569.771H244.94C244.94 569.771 245.473 561.759 254.988 560.108C264.502 558.458 280.364 551.782 286.109 539.244C292.163 526.046 307.21 542.071 307.21 542.071Z" fill="#0F2949"/>
<path d="M356.557 542.071C356.557 542.071 358.367 569.34 353.219 569.723C352.532 569.771 327.097 569.771 327.097 569.771H294.288C294.288 569.771 294.82 561.759 304.335 560.108C313.85 558.458 329.706 551.782 335.456 539.244C341.505 526.046 356.557 542.071 356.557 542.071Z" fill="#163560"/>
<path d="M308.765 476.348C309.574 487.879 311.219 502.706 310.628 516.069C309.808 534.756 309.217 550.515 309.217 550.515C296.897 554.71 274.284 549.626 274.284 549.626C274.284 549.626 266.265 502.398 259.657 464.699C256.697 447.807 254.237 433.193 253.321 426.293C250.345 403.986 256.484 285.397 256.484 285.397C256.484 285.397 289.826 264.027 303.6 275.047C317.374 286.068 325.856 296.822 303.659 417.498C301.971 426.65 306.954 450.522 308.765 476.348Z" fill="#284663"/>
<path d="M308.765 476.348C309.574 487.879 311.06 506.332 310.474 519.695C298.883 507.45 276.035 481.549 259.657 464.699C256.697 447.807 254.237 433.193 253.321 426.293C250.345 403.986 256.484 285.397 256.484 285.397C256.484 285.397 289.826 264.027 303.6 275.047C317.374 286.068 325.856 296.822 303.659 417.498C301.971 426.65 306.954 450.522 308.765 476.348Z" fill="#2C3F4E"/>
<path d="M286.615 287.808C286.615 287.808 289.608 406.531 294.288 428.529C298.968 450.527 323.386 551.297 323.386 551.297C323.386 551.297 346.281 553.384 358.24 548.257C358.24 548.257 357.478 501.599 353.448 474.181C349.657 448.568 342.852 425.148 343.832 415.895C356.685 293.872 347.404 283.794 332.826 273.865C318.248 263.936 286.615 287.808 286.615 287.808Z" fill="#284663"/>
<path d="M265.008 104.039C265.008 104.039 274.166 117.95 272.34 130.935L285.885 163.571L310.335 126.224C310.335 126.224 297.423 112.169 292.605 93.0133L265.008 104.039Z" fill="#FFB48D"/>
<path d="M260.994 115.911C260.994 115.911 294.33 117.354 294.937 97.3417C295.544 77.3293 304.553 64.0196 279.619 62.2627C259.114 60.8146 252.299 69.3648 250.473 75.993C248.646 82.6212 248.641 114.836 260.994 115.911Z" fill="#FFB48D"/>
<path d="M342.607 293.526C335.446 294.192 325.569 295.017 313.621 295.773C311.228 295.922 308.758 296.067 306.209 296.209C270.083 298.233 255.728 292.387 255.728 292.387C255.728 292.387 254.77 291.61 255.073 287.372C256.638 265.544 261.281 259.075 260.722 254.896C259.466 245.569 236.826 169.438 236.826 169.438C236.826 169.438 236.39 145.39 263.14 134.103C266.11 132.855 269.172 131.837 272.298 131.058C273.469 134.167 276.68 139.368 284.895 138.41C297.04 136.994 305.661 129.839 309.388 126.165C310.059 126.165 310.325 126.165 310.325 126.165C311.219 128.767 311.965 131.417 312.561 134.103C314.755 143.553 316.038 153.498 321.842 160.935C327.241 167.826 332.187 175.061 336.649 182.593C339.965 188.195 342.976 193.973 345.669 199.901C369.352 252.282 351.036 292.738 342.607 293.526Z" fill="#FBAE25"/>
<path d="M342.607 293.526C335.445 294.192 325.568 295.017 313.62 295.773C310.133 236.96 334.088 180.527 334.088 180.527C334.998 181.168 335.856 181.88 336.654 182.657C340.828 186.708 343.735 192.724 345.674 199.965C352.808 226.611 346.834 269.92 342.607 293.526Z" fill="#F48D1C"/>
<path d="M250.249 96.8252C250.249 96.8252 243.758 122.566 254.775 126.192C265.791 129.817 295.022 126.916 295.011 95.3505C295.011 95.3505 279.666 104.502 272.34 104.268C265.014 104.034 260.28 99.8119 253.507 103.113C253.507 103.113 251.026 102.948 250.249 96.8252Z" fill="white"/>
<path d="M293.372 68.4863C292.807 66.4419 290.294 65.3718 290.294 65.3718C271.515 57.1944 257.815 66.1385 257.815 66.1385C269.326 50.6992 297.099 53.9362 302.945 67.8687C312.465 90.6123 295.012 95.3452 295.012 95.3452C295.012 95.3452 277.563 88.0142 287.669 78.8412C291.013 75.7959 292.632 73.0914 293.169 70.733C293.343 69.9974 293.411 69.241 293.372 68.4863Z" fill="white"/>
<path d="M263.624 109.065C263.624 109.065 263.012 111.253 257.527 110.662C257.527 110.662 252.927 110.183 253.172 107.76C253.172 107.782 257.719 106.243 263.624 109.065Z" fill="#EDDFD9"/>
<path d="M401.171 173.734C401.171 173.734 407.235 188.997 406.708 209.122C406.303 224.561 392.236 272.108 387.929 279.003C383.813 285.594 354.012 309.567 346.659 311.851C346.386 311.916 346.098 311.882 345.847 311.757C345.596 311.631 345.397 311.421 345.285 311.164L338.688 300.027C338.39 299.478 338.252 298.856 338.292 298.232C338.331 297.609 338.546 297.009 338.912 296.502L366.641 262.781L375.427 208.653C378.35 190.658 388.131 176.79 400.361 173.909C400.627 173.846 400.899 173.787 401.171 173.734Z" fill="#E33115"/>
<path d="M394.27 474.841L399.594 497.015L402.885 510.74L413.843 556.424C413.843 556.424 423.219 559.315 432.968 556.424C435.372 545.258 436.621 533.874 436.695 522.453C436.754 512.593 435.849 501.689 432.968 491.425C431.817 487.25 430.288 483.189 428.4 479.292C412.916 447.721 394.27 474.841 394.27 474.841Z" fill="#FFB48D"/>
<path d="M385.187 569.771H436.674C436.674 569.771 437.489 561.982 435.22 554.529C434.887 553.412 434.478 552.32 433.996 551.26C433.996 551.26 422.506 553.863 412.592 551.26C412.592 551.26 403.274 559.192 397.64 561.625C392.007 564.058 385.783 562.738 385.187 569.771Z" fill="#FA412B"/>
<path d="M399.584 497.015L402.875 510.74C413.101 517.165 424.659 521.171 436.669 522.452C436.727 512.593 435.822 501.689 432.942 491.425C428.203 489.024 423.358 487.762 419.279 488.481C409.061 490.264 402.981 493.996 399.584 497.015Z" fill="#F6A071"/>
<path d="M411.932 569.771H436.674C436.674 569.771 437.489 561.982 435.221 554.529C429.007 556.461 416.367 561.317 411.932 569.771Z" fill="#E33115"/>
<path d="M438.122 474.841L443.447 497.015L446.737 510.74L457.695 556.424C457.695 556.424 467.071 559.315 476.82 556.424C479.224 545.258 480.473 533.874 480.547 522.453C480.606 512.593 479.701 501.689 476.82 491.425C475.669 487.25 474.14 483.189 472.252 479.292C456.758 447.721 438.122 474.841 438.122 474.841Z" fill="#FFB48D"/>
<path d="M477.853 551.255C477.853 551.255 466.358 553.863 456.444 551.255C456.444 551.255 447.126 559.192 441.492 561.625C435.859 564.058 429.635 562.738 429.044 569.771H480.526C480.526 569.771 481.602 559.496 477.853 551.255Z" fill="#FA412B"/>
<path d="M443.446 497.015L446.737 510.74C456.963 517.165 468.521 521.171 480.531 522.452C480.59 512.593 479.684 501.689 476.804 491.425C472.065 489.024 467.22 487.762 463.141 488.481C452.913 490.264 446.838 493.996 443.446 497.015Z" fill="#F6A071"/>
<path d="M383.525 495.551C384.126 497.774 385.443 499.737 387.271 501.137C389.1 502.537 391.339 503.296 393.642 503.297H476.171C477.642 503.302 479.098 503.001 480.447 502.415C481.797 501.829 483.01 500.969 484.01 499.891C485.011 498.813 485.777 497.538 486.26 496.149C486.744 494.76 486.934 493.286 486.82 491.819C485.952 480.575 485.898 464.39 484.546 451.991C484.014 446.838 485.121 437.031 485.446 434.875C493.779 379.746 496.34 318.314 495.488 305.904C495.371 304.153 495.286 303.242 495.286 303.242C495.286 303.242 489.274 302.71 480.127 302.38C453.542 301.315 400.473 301.512 391.656 318.884C382.673 336.596 377.248 454.174 377.248 454.174C375.965 465.184 380.618 484.722 383.525 495.551Z" fill="#284663"/>
<path d="M484.637 452.577C484.104 447.423 485.239 436.642 485.563 434.476C493.896 379.347 496.367 318.303 495.515 305.893C495.398 304.142 495.312 303.231 495.312 303.231C495.312 303.231 489.301 302.699 480.154 302.369C466.401 310.467 457.45 324.271 457.45 324.271C457.45 324.271 463.323 430.216 484.637 452.577Z" fill="#2C3F4E"/>
<path d="M430.269 76.1793C436.866 74.5289 440.694 79.725 440.694 85.8421C440.694 88.7795 439.527 91.5967 437.451 93.6742C435.374 95.7518 432.557 96.9197 429.619 96.9211C423.496 96.9211 418.539 89.835 418.539 83.7126C418.539 77.5901 424.332 77.6434 430.269 76.1793Z" fill="white"/>
<path d="M433.676 139.603C433.676 139.603 468.03 108.666 436.93 86.7632C436.93 86.7632 427.649 84.2876 422.932 85.166C422.932 85.166 406.026 80.2201 396.134 91.6984C386.241 103.177 381.939 111.482 390.42 121.73C398.902 131.979 433.676 139.603 433.676 139.603Z" fill="white"/>
<path d="M473.098 326.449C473.098 326.449 464.616 343.485 480.92 356.47C480.92 356.47 487.985 361.304 489.071 355.022C490.158 348.74 488.901 350.928 490.61 342.117C492.319 333.306 490.131 324.197 485.062 320.231L473.098 326.449Z" fill="#FFB48D"/>
<path d="M338.555 298.131C338.555 298.131 328.439 301.065 328.849 321.908C328.849 321.908 329.44 330.426 333.108 327.189C336.777 323.952 333.736 319.901 339.295 318.767C345.242 317.553 345.152 313.933 346.632 311.846L338.555 298.131Z" fill="#F6A071"/>
<path d="M405.531 139.315C405.531 139.315 405.952 143.947 406.74 150.208C407.123 153.264 407.592 156.713 408.14 160.201C408.534 162.703 408.971 165.232 409.445 167.654L420.094 203.574L445.065 163.161C445.065 163.161 439.208 158.305 431.222 131.989C431.147 131.707 431.094 131.558 431.094 131.558L405.531 139.315Z" fill="#FFB48D"/>
<path d="M390.979 316.52C390.655 320.555 391.677 321.311 391.677 321.311C391.677 321.311 407.033 326.875 445.656 324.953C449.834 324.744 453.765 324.531 457.45 324.314C482.342 322.845 495.653 321.311 495.653 321.311C495.653 321.311 516.04 274.259 477.741 216.288C473.081 209.271 467.949 202.579 462.38 196.259C456.177 189.184 454.809 179.718 452.461 170.705C451.79 168.123 453.733 167.553 452.764 165.12C452.764 165.12 445.779 163.15 445.054 163.15C441.088 166.642 435.859 173.436 422.867 174.777C414.087 175.693 410.648 170.747 409.402 167.782C406.053 168.99 402.581 171.083 399.743 172.445C399.376 172.621 399.014 172.802 398.679 172.978C381.316 181.794 372.988 201.982 378.589 220.626C384.979 242.002 396.091 279.359 397.039 285.636C397.619 289.592 392.657 295.73 390.979 316.52Z" fill="#FA412B"/>
<path d="M406.74 150.208C407.124 153.264 408.417 161.638 408.971 165.114C435.418 154.807 431.951 134.715 431.233 131.973C431.158 131.691 431.105 131.542 431.105 131.542C431.105 131.542 417.112 141.476 406.74 150.208Z" fill="#F6A071"/>
<path d="M401.075 153.759C401.075 153.759 431.621 154.738 431.957 135.711C432.292 116.683 436.434 103.991 416.942 102.559C397.449 101.127 393.514 108.325 391.917 114.655C390.319 120.985 393.136 153.013 401.075 153.759Z" fill="#FFB48D"/>
<path d="M398.402 99.7055C398.402 99.7055 400.319 131.478 437.564 128.071C437.59 128.071 436.77 84.0693 398.402 99.7055Z" fill="white"/>
<path d="M405.531 102.868C405.531 102.868 396.155 118.696 391.422 122.816C391.422 122.816 378.755 103.246 405.531 102.868Z" fill="white"/>
<path d="M457.45 324.272C482.341 322.802 495.653 321.269 495.653 321.269C495.653 321.269 516.04 274.216 477.741 216.245C469.983 234.341 451.694 282.639 457.45 324.272Z" fill="#E33115"/>
<path d="M445.044 163.15C445.044 163.15 474.6 169.214 487.762 184.446C497.878 196.126 508.889 253.235 508.889 262.669C508.889 271.688 498.523 319.635 492.048 328.818C491.831 329.133 491.533 329.384 491.185 329.545C490.838 329.705 490.453 329.768 490.073 329.729L473.428 327.966C473.102 327.927 472.787 327.823 472.502 327.66C472.216 327.496 471.967 327.277 471.768 327.015C471.569 326.754 471.426 326.454 471.345 326.136C471.264 325.817 471.249 325.486 471.299 325.161L480.648 264.554L447.829 206.348C447.829 206.348 428.458 183.423 445.044 163.15Z" fill="#FA412B"/>
<path d="M331.867 298.185C331.867 298.185 323.934 314.098 339.178 326.257C339.178 326.257 345.791 330.777 346.802 324.905C347.814 319.033 346.648 321.077 348.245 312.836C349.843 304.595 347.798 296.076 343.059 292.371L331.867 298.185Z" fill="#FFB48D"/>
<path d="M310.336 126.224C310.336 126.224 333.641 126.756 345.951 142.765C355.386 155.01 365.358 220.893 365.358 230.811C365.358 240.729 354.709 295.448 348.789 301.395C345.825 302.004 342.769 302.004 339.806 301.395C336.592 300.799 333.599 299.346 331.143 297.189C331.143 297.189 334.104 236.263 334.104 230.55C334.104 222.277 308.232 171.626 308.232 171.626C308.232 171.626 294.804 147.519 310.336 126.224Z" fill="#FBAE25"/>
<path d="M516.077 487.049C514.814 484.188 513.296 481.448 511.54 478.861H499.598C501.914 481.345 503.93 484.093 505.604 487.049H516.077Z" fill="#284663"/>
<path d="M510.114 498.777C510.8 501.841 511.146 504.971 511.147 508.11V570.479H520.518V508.11C520.516 504.98 520.232 501.857 519.672 498.777H510.114Z" fill="#284663"/>
</svg>
